%TF.GenerationSoftware,KiCad,Pcbnew,10.0.3*%
%TF.CreationDate,2026-09-19T11:14:00-07:00*%
%TF.ProjectId,hackpad2,6861636b-7061-4643-922e-6b696361645f,rev?*%
%TF.SameCoordinates,Original*%
%TF.FileFunction,Legend,Top*%
%TF.FilePolarity,Positive*%
%FSLAX46Y46*%
G04 Gerber Fmt 4.6, Leading zero omitted, Abs format (unit mm)*
G04 Created by KiCad (PCBNEW 10.0.3) date 2026-09-19 11:14:00*
%MOMM*%
%LPD*%
G01*
G04 APERTURE LIST*
%ADD10C,0.200000*%
%ADD11C,0.300000*%
%ADD12C,0.101600*%
%ADD13C,0.150000*%
%ADD14C,0.127000*%
%ADD15C,0.120000*%
%ADD16C,0.254000*%
%ADD17C,0.025400*%
G04 APERTURE END LIST*
D10*
X109757275Y-109904136D02*
X109757275Y-110380326D01*
X109757275Y-110380326D02*
X108757275Y-110380326D01*
X109757275Y-109570802D02*
X109090608Y-109570802D01*
X108757275Y-109570802D02*
X108804894Y-109618421D01*
X108804894Y-109618421D02*
X108852513Y-109570802D01*
X108852513Y-109570802D02*
X108804894Y-109523183D01*
X108804894Y-109523183D02*
X108757275Y-109570802D01*
X108757275Y-109570802D02*
X108852513Y-109570802D01*
X109090608Y-109094612D02*
X109757275Y-109094612D01*
X109185846Y-109094612D02*
X109138227Y-109046993D01*
X109138227Y-109046993D02*
X109090608Y-108951755D01*
X109090608Y-108951755D02*
X109090608Y-108808898D01*
X109090608Y-108808898D02*
X109138227Y-108713660D01*
X109138227Y-108713660D02*
X109233465Y-108666041D01*
X109233465Y-108666041D02*
X109757275Y-108666041D01*
X109709656Y-107761279D02*
X109757275Y-107856517D01*
X109757275Y-107856517D02*
X109757275Y-108046993D01*
X109757275Y-108046993D02*
X109709656Y-108142231D01*
X109709656Y-108142231D02*
X109662036Y-108189850D01*
X109662036Y-108189850D02*
X109566798Y-108237469D01*
X109566798Y-108237469D02*
X109281084Y-108237469D01*
X109281084Y-108237469D02*
X109185846Y-108189850D01*
X109185846Y-108189850D02*
X109138227Y-108142231D01*
X109138227Y-108142231D02*
X109090608Y-108046993D01*
X109090608Y-108046993D02*
X109090608Y-107856517D01*
X109090608Y-107856517D02*
X109138227Y-107761279D01*
X109757275Y-107189850D02*
X109709656Y-107285088D01*
X109709656Y-107285088D02*
X109662036Y-107332707D01*
X109662036Y-107332707D02*
X109566798Y-107380326D01*
X109566798Y-107380326D02*
X109281084Y-107380326D01*
X109281084Y-107380326D02*
X109185846Y-107332707D01*
X109185846Y-107332707D02*
X109138227Y-107285088D01*
X109138227Y-107285088D02*
X109090608Y-107189850D01*
X109090608Y-107189850D02*
X109090608Y-107046993D01*
X109090608Y-107046993D02*
X109138227Y-106951755D01*
X109138227Y-106951755D02*
X109185846Y-106904136D01*
X109185846Y-106904136D02*
X109281084Y-106856517D01*
X109281084Y-106856517D02*
X109566798Y-106856517D01*
X109566798Y-106856517D02*
X109662036Y-106904136D01*
X109662036Y-106904136D02*
X109709656Y-106951755D01*
X109709656Y-106951755D02*
X109757275Y-107046993D01*
X109757275Y-107046993D02*
X109757275Y-107189850D01*
X109757275Y-106285088D02*
X109709656Y-106380326D01*
X109709656Y-106380326D02*
X109614417Y-106427945D01*
X109614417Y-106427945D02*
X108757275Y-106427945D01*
X109090608Y-105904135D02*
X109757275Y-105904135D01*
X109185846Y-105904135D02*
X109138227Y-105856516D01*
X109138227Y-105856516D02*
X109090608Y-105761278D01*
X109090608Y-105761278D02*
X109090608Y-105618421D01*
X109090608Y-105618421D02*
X109138227Y-105523183D01*
X109138227Y-105523183D02*
X109233465Y-105475564D01*
X109233465Y-105475564D02*
X109757275Y-105475564D01*
X109662036Y-103666040D02*
X109709656Y-103713659D01*
X109709656Y-103713659D02*
X109757275Y-103856516D01*
X109757275Y-103856516D02*
X109757275Y-103951754D01*
X109757275Y-103951754D02*
X109709656Y-104094611D01*
X109709656Y-104094611D02*
X109614417Y-104189849D01*
X109614417Y-104189849D02*
X109519179Y-104237468D01*
X109519179Y-104237468D02*
X109328703Y-104285087D01*
X109328703Y-104285087D02*
X109185846Y-104285087D01*
X109185846Y-104285087D02*
X108995370Y-104237468D01*
X108995370Y-104237468D02*
X108900132Y-104189849D01*
X108900132Y-104189849D02*
X108804894Y-104094611D01*
X108804894Y-104094611D02*
X108757275Y-103951754D01*
X108757275Y-103951754D02*
X108757275Y-103856516D01*
X108757275Y-103856516D02*
X108804894Y-103713659D01*
X108804894Y-103713659D02*
X108852513Y-103666040D01*
X109757275Y-103094611D02*
X109709656Y-103189849D01*
X109709656Y-103189849D02*
X109614417Y-103237468D01*
X109614417Y-103237468D02*
X108757275Y-103237468D01*
X109709656Y-102332706D02*
X109757275Y-102427944D01*
X109757275Y-102427944D02*
X109757275Y-102618420D01*
X109757275Y-102618420D02*
X109709656Y-102713658D01*
X109709656Y-102713658D02*
X109614417Y-102761277D01*
X109614417Y-102761277D02*
X109233465Y-102761277D01*
X109233465Y-102761277D02*
X109138227Y-102713658D01*
X109138227Y-102713658D02*
X109090608Y-102618420D01*
X109090608Y-102618420D02*
X109090608Y-102427944D01*
X109090608Y-102427944D02*
X109138227Y-102332706D01*
X109138227Y-102332706D02*
X109233465Y-102285087D01*
X109233465Y-102285087D02*
X109328703Y-102285087D01*
X109328703Y-102285087D02*
X109423941Y-102761277D01*
X109757275Y-101856515D02*
X109090608Y-101856515D01*
X109185846Y-101856515D02*
X109138227Y-101808896D01*
X109138227Y-101808896D02*
X109090608Y-101713658D01*
X109090608Y-101713658D02*
X109090608Y-101570801D01*
X109090608Y-101570801D02*
X109138227Y-101475563D01*
X109138227Y-101475563D02*
X109233465Y-101427944D01*
X109233465Y-101427944D02*
X109757275Y-101427944D01*
X109233465Y-101427944D02*
X109138227Y-101380325D01*
X109138227Y-101380325D02*
X109090608Y-101285087D01*
X109090608Y-101285087D02*
X109090608Y-101142230D01*
X109090608Y-101142230D02*
X109138227Y-101046991D01*
X109138227Y-101046991D02*
X109233465Y-100999372D01*
X109233465Y-100999372D02*
X109757275Y-100999372D01*
X109757275Y-100523182D02*
X109090608Y-100523182D01*
X109185846Y-100523182D02*
X109138227Y-100475563D01*
X109138227Y-100475563D02*
X109090608Y-100380325D01*
X109090608Y-100380325D02*
X109090608Y-100237468D01*
X109090608Y-100237468D02*
X109138227Y-100142230D01*
X109138227Y-100142230D02*
X109233465Y-100094611D01*
X109233465Y-100094611D02*
X109757275Y-100094611D01*
X109233465Y-100094611D02*
X109138227Y-100046992D01*
X109138227Y-100046992D02*
X109090608Y-99951754D01*
X109090608Y-99951754D02*
X109090608Y-99808897D01*
X109090608Y-99808897D02*
X109138227Y-99713658D01*
X109138227Y-99713658D02*
X109233465Y-99666039D01*
X109233465Y-99666039D02*
X109757275Y-99666039D01*
X109709656Y-98808897D02*
X109757275Y-98904135D01*
X109757275Y-98904135D02*
X109757275Y-99094611D01*
X109757275Y-99094611D02*
X109709656Y-99189849D01*
X109709656Y-99189849D02*
X109614417Y-99237468D01*
X109614417Y-99237468D02*
X109233465Y-99237468D01*
X109233465Y-99237468D02*
X109138227Y-99189849D01*
X109138227Y-99189849D02*
X109090608Y-99094611D01*
X109090608Y-99094611D02*
X109090608Y-98904135D01*
X109090608Y-98904135D02*
X109138227Y-98808897D01*
X109138227Y-98808897D02*
X109233465Y-98761278D01*
X109233465Y-98761278D02*
X109328703Y-98761278D01*
X109328703Y-98761278D02*
X109423941Y-99237468D01*
X109757275Y-98332706D02*
X109090608Y-98332706D01*
X109281084Y-98332706D02*
X109185846Y-98285087D01*
X109185846Y-98285087D02*
X109138227Y-98237468D01*
X109138227Y-98237468D02*
X109090608Y-98142230D01*
X109090608Y-98142230D02*
X109090608Y-98046992D01*
X109662036Y-96951753D02*
X109709656Y-96904134D01*
X109709656Y-96904134D02*
X109757275Y-96951753D01*
X109757275Y-96951753D02*
X109709656Y-96999372D01*
X109709656Y-96999372D02*
X109662036Y-96951753D01*
X109662036Y-96951753D02*
X109757275Y-96951753D01*
X109138227Y-96951753D02*
X109185846Y-96904134D01*
X109185846Y-96904134D02*
X109233465Y-96951753D01*
X109233465Y-96951753D02*
X109185846Y-96999372D01*
X109185846Y-96999372D02*
X109138227Y-96951753D01*
X109138227Y-96951753D02*
X109233465Y-96951753D01*
X109757275Y-96475563D02*
X108757275Y-96475563D01*
X108757275Y-96475563D02*
X108757275Y-96237468D01*
X108757275Y-96237468D02*
X108804894Y-96094611D01*
X108804894Y-96094611D02*
X108900132Y-95999373D01*
X108900132Y-95999373D02*
X108995370Y-95951754D01*
X108995370Y-95951754D02*
X109185846Y-95904135D01*
X109185846Y-95904135D02*
X109328703Y-95904135D01*
X109328703Y-95904135D02*
X109519179Y-95951754D01*
X109519179Y-95951754D02*
X109614417Y-95999373D01*
X109614417Y-95999373D02*
X109709656Y-96094611D01*
X109709656Y-96094611D02*
X109757275Y-96237468D01*
X109757275Y-96237468D02*
X109757275Y-96475563D01*
X111367219Y-110380326D02*
X110367219Y-110380326D01*
X110367219Y-110380326D02*
X111081504Y-110046993D01*
X111081504Y-110046993D02*
X110367219Y-109713660D01*
X110367219Y-109713660D02*
X111367219Y-109713660D01*
X111367219Y-109237469D02*
X110367219Y-109237469D01*
X110367219Y-109237469D02*
X111081504Y-108904136D01*
X111081504Y-108904136D02*
X110367219Y-108570803D01*
X110367219Y-108570803D02*
X111367219Y-108570803D01*
X110367219Y-108189850D02*
X111367219Y-107951755D01*
X111367219Y-107951755D02*
X110652933Y-107761279D01*
X110652933Y-107761279D02*
X111367219Y-107570803D01*
X111367219Y-107570803D02*
X110367219Y-107332708D01*
X110367219Y-107046993D02*
X111367219Y-106808898D01*
X111367219Y-106808898D02*
X110652933Y-106618422D01*
X110652933Y-106618422D02*
X111367219Y-106427946D01*
X111367219Y-106427946D02*
X110367219Y-106189851D01*
X110367219Y-105904136D02*
X111367219Y-105666041D01*
X111367219Y-105666041D02*
X110652933Y-105475565D01*
X110652933Y-105475565D02*
X111367219Y-105285089D01*
X111367219Y-105285089D02*
X110367219Y-105046994D01*
X111367219Y-104666041D02*
X110367219Y-104666041D01*
X111367219Y-104237470D02*
X110843409Y-104237470D01*
X110843409Y-104237470D02*
X110748171Y-104285089D01*
X110748171Y-104285089D02*
X110700552Y-104380327D01*
X110700552Y-104380327D02*
X110700552Y-104523184D01*
X110700552Y-104523184D02*
X110748171Y-104618422D01*
X110748171Y-104618422D02*
X110795790Y-104666041D01*
X111367219Y-103332708D02*
X110843409Y-103332708D01*
X110843409Y-103332708D02*
X110748171Y-103380327D01*
X110748171Y-103380327D02*
X110700552Y-103475565D01*
X110700552Y-103475565D02*
X110700552Y-103666041D01*
X110700552Y-103666041D02*
X110748171Y-103761279D01*
X111319600Y-103332708D02*
X111367219Y-103427946D01*
X111367219Y-103427946D02*
X111367219Y-103666041D01*
X111367219Y-103666041D02*
X111319600Y-103761279D01*
X111319600Y-103761279D02*
X111224361Y-103808898D01*
X111224361Y-103808898D02*
X111129123Y-103808898D01*
X111129123Y-103808898D02*
X111033885Y-103761279D01*
X111033885Y-103761279D02*
X110986266Y-103666041D01*
X110986266Y-103666041D02*
X110986266Y-103427946D01*
X110986266Y-103427946D02*
X110938647Y-103332708D01*
X111367219Y-102856517D02*
X110367219Y-102856517D01*
X111367219Y-102427946D02*
X110843409Y-102427946D01*
X110843409Y-102427946D02*
X110748171Y-102475565D01*
X110748171Y-102475565D02*
X110700552Y-102570803D01*
X110700552Y-102570803D02*
X110700552Y-102713660D01*
X110700552Y-102713660D02*
X110748171Y-102808898D01*
X110748171Y-102808898D02*
X110795790Y-102856517D01*
X111367219Y-101523184D02*
X110843409Y-101523184D01*
X110843409Y-101523184D02*
X110748171Y-101570803D01*
X110748171Y-101570803D02*
X110700552Y-101666041D01*
X110700552Y-101666041D02*
X110700552Y-101856517D01*
X110700552Y-101856517D02*
X110748171Y-101951755D01*
X111319600Y-101523184D02*
X111367219Y-101618422D01*
X111367219Y-101618422D02*
X111367219Y-101856517D01*
X111367219Y-101856517D02*
X111319600Y-101951755D01*
X111319600Y-101951755D02*
X111224361Y-101999374D01*
X111224361Y-101999374D02*
X111129123Y-101999374D01*
X111129123Y-101999374D02*
X111033885Y-101951755D01*
X111033885Y-101951755D02*
X110986266Y-101856517D01*
X110986266Y-101856517D02*
X110986266Y-101618422D01*
X110986266Y-101618422D02*
X110938647Y-101523184D01*
X111367219Y-101046993D02*
X110367219Y-101046993D01*
X111367219Y-100618422D02*
X110843409Y-100618422D01*
X110843409Y-100618422D02*
X110748171Y-100666041D01*
X110748171Y-100666041D02*
X110700552Y-100761279D01*
X110700552Y-100761279D02*
X110700552Y-100904136D01*
X110700552Y-100904136D02*
X110748171Y-100999374D01*
X110748171Y-100999374D02*
X110795790Y-101046993D01*
X111367219Y-99713660D02*
X110843409Y-99713660D01*
X110843409Y-99713660D02*
X110748171Y-99761279D01*
X110748171Y-99761279D02*
X110700552Y-99856517D01*
X110700552Y-99856517D02*
X110700552Y-100046993D01*
X110700552Y-100046993D02*
X110748171Y-100142231D01*
X111319600Y-99713660D02*
X111367219Y-99808898D01*
X111367219Y-99808898D02*
X111367219Y-100046993D01*
X111367219Y-100046993D02*
X111319600Y-100142231D01*
X111319600Y-100142231D02*
X111224361Y-100189850D01*
X111224361Y-100189850D02*
X111129123Y-100189850D01*
X111129123Y-100189850D02*
X111033885Y-100142231D01*
X111033885Y-100142231D02*
X110986266Y-100046993D01*
X110986266Y-100046993D02*
X110986266Y-99808898D01*
X110986266Y-99808898D02*
X110938647Y-99713660D01*
X111367219Y-99237469D02*
X110367219Y-99237469D01*
X111367219Y-98808898D02*
X110843409Y-98808898D01*
X110843409Y-98808898D02*
X110748171Y-98856517D01*
X110748171Y-98856517D02*
X110700552Y-98951755D01*
X110700552Y-98951755D02*
X110700552Y-99094612D01*
X110700552Y-99094612D02*
X110748171Y-99189850D01*
X110748171Y-99189850D02*
X110795790Y-99237469D01*
X111367219Y-97904136D02*
X110843409Y-97904136D01*
X110843409Y-97904136D02*
X110748171Y-97951755D01*
X110748171Y-97951755D02*
X110700552Y-98046993D01*
X110700552Y-98046993D02*
X110700552Y-98237469D01*
X110700552Y-98237469D02*
X110748171Y-98332707D01*
X111319600Y-97904136D02*
X111367219Y-97999374D01*
X111367219Y-97999374D02*
X111367219Y-98237469D01*
X111367219Y-98237469D02*
X111319600Y-98332707D01*
X111319600Y-98332707D02*
X111224361Y-98380326D01*
X111224361Y-98380326D02*
X111129123Y-98380326D01*
X111129123Y-98380326D02*
X111033885Y-98332707D01*
X111033885Y-98332707D02*
X110986266Y-98237469D01*
X110986266Y-98237469D02*
X110986266Y-97999374D01*
X110986266Y-97999374D02*
X110938647Y-97904136D01*
D11*
X153911653Y-109050828D02*
X154911653Y-110550828D01*
X154911653Y-109050828D02*
X153911653Y-110550828D01*
X155483081Y-110550828D02*
X155483081Y-109050828D01*
X156125939Y-110122257D02*
X156840225Y-110122257D01*
X155983082Y-110550828D02*
X156483082Y-109050828D01*
X156483082Y-109050828D02*
X156983082Y-110550828D01*
X157768796Y-109050828D02*
X158054510Y-109050828D01*
X158054510Y-109050828D02*
X158197367Y-109122257D01*
X158197367Y-109122257D02*
X158340224Y-109265114D01*
X158340224Y-109265114D02*
X158411653Y-109550828D01*
X158411653Y-109550828D02*
X158411653Y-110050828D01*
X158411653Y-110050828D02*
X158340224Y-110336542D01*
X158340224Y-110336542D02*
X158197367Y-110479400D01*
X158197367Y-110479400D02*
X158054510Y-110550828D01*
X158054510Y-110550828D02*
X157768796Y-110550828D01*
X157768796Y-110550828D02*
X157625939Y-110479400D01*
X157625939Y-110479400D02*
X157483081Y-110336542D01*
X157483081Y-110336542D02*
X157411653Y-110050828D01*
X157411653Y-110050828D02*
X157411653Y-109550828D01*
X157411653Y-109550828D02*
X157483081Y-109265114D01*
X157483081Y-109265114D02*
X157625939Y-109122257D01*
X157625939Y-109122257D02*
X157768796Y-109050828D01*
X160197367Y-109979400D02*
X161340225Y-109979400D01*
X162054510Y-109979400D02*
X163197368Y-109979400D01*
X163911653Y-109550828D02*
X165054511Y-109979400D01*
X165054511Y-109979400D02*
X163911653Y-110407971D01*
D12*
X158866416Y-104291985D02*
X158866416Y-105011652D01*
X158866416Y-105011652D02*
X158908750Y-105096318D01*
X158908750Y-105096318D02*
X158951083Y-105138652D01*
X158951083Y-105138652D02*
X159035750Y-105180985D01*
X159035750Y-105180985D02*
X159205083Y-105180985D01*
X159205083Y-105180985D02*
X159289750Y-105138652D01*
X159289750Y-105138652D02*
X159332083Y-105096318D01*
X159332083Y-105096318D02*
X159374416Y-105011652D01*
X159374416Y-105011652D02*
X159374416Y-104291985D01*
X160263416Y-105180985D02*
X159755416Y-105180985D01*
X160009416Y-105180985D02*
X160009416Y-104291985D01*
X160009416Y-104291985D02*
X159924749Y-104418985D01*
X159924749Y-104418985D02*
X159840083Y-104503652D01*
X159840083Y-104503652D02*
X159755416Y-104545985D01*
D13*
X154781845Y-103682200D02*
X154924702Y-103729819D01*
X154924702Y-103729819D02*
X155162797Y-103729819D01*
X155162797Y-103729819D02*
X155258035Y-103682200D01*
X155258035Y-103682200D02*
X155305654Y-103634580D01*
X155305654Y-103634580D02*
X155353273Y-103539342D01*
X155353273Y-103539342D02*
X155353273Y-103444104D01*
X155353273Y-103444104D02*
X155305654Y-103348866D01*
X155305654Y-103348866D02*
X155258035Y-103301247D01*
X155258035Y-103301247D02*
X155162797Y-103253628D01*
X155162797Y-103253628D02*
X154972321Y-103206009D01*
X154972321Y-103206009D02*
X154877083Y-103158390D01*
X154877083Y-103158390D02*
X154829464Y-103110771D01*
X154829464Y-103110771D02*
X154781845Y-103015533D01*
X154781845Y-103015533D02*
X154781845Y-102920295D01*
X154781845Y-102920295D02*
X154829464Y-102825057D01*
X154829464Y-102825057D02*
X154877083Y-102777438D01*
X154877083Y-102777438D02*
X154972321Y-102729819D01*
X154972321Y-102729819D02*
X155210416Y-102729819D01*
X155210416Y-102729819D02*
X155353273Y-102777438D01*
X156162797Y-103682200D02*
X156067559Y-103729819D01*
X156067559Y-103729819D02*
X155877083Y-103729819D01*
X155877083Y-103729819D02*
X155781845Y-103682200D01*
X155781845Y-103682200D02*
X155734226Y-103586961D01*
X155734226Y-103586961D02*
X155734226Y-103206009D01*
X155734226Y-103206009D02*
X155781845Y-103110771D01*
X155781845Y-103110771D02*
X155877083Y-103063152D01*
X155877083Y-103063152D02*
X156067559Y-103063152D01*
X156067559Y-103063152D02*
X156162797Y-103110771D01*
X156162797Y-103110771D02*
X156210416Y-103206009D01*
X156210416Y-103206009D02*
X156210416Y-103301247D01*
X156210416Y-103301247D02*
X155734226Y-103396485D01*
X157019940Y-103682200D02*
X156924702Y-103729819D01*
X156924702Y-103729819D02*
X156734226Y-103729819D01*
X156734226Y-103729819D02*
X156638988Y-103682200D01*
X156638988Y-103682200D02*
X156591369Y-103586961D01*
X156591369Y-103586961D02*
X156591369Y-103206009D01*
X156591369Y-103206009D02*
X156638988Y-103110771D01*
X156638988Y-103110771D02*
X156734226Y-103063152D01*
X156734226Y-103063152D02*
X156924702Y-103063152D01*
X156924702Y-103063152D02*
X157019940Y-103110771D01*
X157019940Y-103110771D02*
X157067559Y-103206009D01*
X157067559Y-103206009D02*
X157067559Y-103301247D01*
X157067559Y-103301247D02*
X156591369Y-103396485D01*
X157877083Y-103682200D02*
X157781845Y-103729819D01*
X157781845Y-103729819D02*
X157591369Y-103729819D01*
X157591369Y-103729819D02*
X157496131Y-103682200D01*
X157496131Y-103682200D02*
X157448512Y-103586961D01*
X157448512Y-103586961D02*
X157448512Y-103206009D01*
X157448512Y-103206009D02*
X157496131Y-103110771D01*
X157496131Y-103110771D02*
X157591369Y-103063152D01*
X157591369Y-103063152D02*
X157781845Y-103063152D01*
X157781845Y-103063152D02*
X157877083Y-103110771D01*
X157877083Y-103110771D02*
X157924702Y-103206009D01*
X157924702Y-103206009D02*
X157924702Y-103301247D01*
X157924702Y-103301247D02*
X157448512Y-103396485D01*
X158781845Y-103729819D02*
X158781845Y-102729819D01*
X158781845Y-103682200D02*
X158686607Y-103729819D01*
X158686607Y-103729819D02*
X158496131Y-103729819D01*
X158496131Y-103729819D02*
X158400893Y-103682200D01*
X158400893Y-103682200D02*
X158353274Y-103634580D01*
X158353274Y-103634580D02*
X158305655Y-103539342D01*
X158305655Y-103539342D02*
X158305655Y-103253628D01*
X158305655Y-103253628D02*
X158353274Y-103158390D01*
X158353274Y-103158390D02*
X158400893Y-103110771D01*
X158400893Y-103110771D02*
X158496131Y-103063152D01*
X158496131Y-103063152D02*
X158686607Y-103063152D01*
X158686607Y-103063152D02*
X158781845Y-103110771D01*
X159972322Y-103682200D02*
X160115179Y-103729819D01*
X160115179Y-103729819D02*
X160353274Y-103729819D01*
X160353274Y-103729819D02*
X160448512Y-103682200D01*
X160448512Y-103682200D02*
X160496131Y-103634580D01*
X160496131Y-103634580D02*
X160543750Y-103539342D01*
X160543750Y-103539342D02*
X160543750Y-103444104D01*
X160543750Y-103444104D02*
X160496131Y-103348866D01*
X160496131Y-103348866D02*
X160448512Y-103301247D01*
X160448512Y-103301247D02*
X160353274Y-103253628D01*
X160353274Y-103253628D02*
X160162798Y-103206009D01*
X160162798Y-103206009D02*
X160067560Y-103158390D01*
X160067560Y-103158390D02*
X160019941Y-103110771D01*
X160019941Y-103110771D02*
X159972322Y-103015533D01*
X159972322Y-103015533D02*
X159972322Y-102920295D01*
X159972322Y-102920295D02*
X160019941Y-102825057D01*
X160019941Y-102825057D02*
X160067560Y-102777438D01*
X160067560Y-102777438D02*
X160162798Y-102729819D01*
X160162798Y-102729819D02*
X160400893Y-102729819D01*
X160400893Y-102729819D02*
X160543750Y-102777438D01*
X160829465Y-103063152D02*
X161210417Y-103063152D01*
X160972322Y-102729819D02*
X160972322Y-103586961D01*
X160972322Y-103586961D02*
X161019941Y-103682200D01*
X161019941Y-103682200D02*
X161115179Y-103729819D01*
X161115179Y-103729819D02*
X161210417Y-103729819D01*
X161972322Y-103063152D02*
X161972322Y-103729819D01*
X161543751Y-103063152D02*
X161543751Y-103586961D01*
X161543751Y-103586961D02*
X161591370Y-103682200D01*
X161591370Y-103682200D02*
X161686608Y-103729819D01*
X161686608Y-103729819D02*
X161829465Y-103729819D01*
X161829465Y-103729819D02*
X161924703Y-103682200D01*
X161924703Y-103682200D02*
X161972322Y-103634580D01*
X162877084Y-103729819D02*
X162877084Y-102729819D01*
X162877084Y-103682200D02*
X162781846Y-103729819D01*
X162781846Y-103729819D02*
X162591370Y-103729819D01*
X162591370Y-103729819D02*
X162496132Y-103682200D01*
X162496132Y-103682200D02*
X162448513Y-103634580D01*
X162448513Y-103634580D02*
X162400894Y-103539342D01*
X162400894Y-103539342D02*
X162400894Y-103253628D01*
X162400894Y-103253628D02*
X162448513Y-103158390D01*
X162448513Y-103158390D02*
X162496132Y-103110771D01*
X162496132Y-103110771D02*
X162591370Y-103063152D01*
X162591370Y-103063152D02*
X162781846Y-103063152D01*
X162781846Y-103063152D02*
X162877084Y-103110771D01*
X163353275Y-103729819D02*
X163353275Y-103063152D01*
X163353275Y-102729819D02*
X163305656Y-102777438D01*
X163305656Y-102777438D02*
X163353275Y-102825057D01*
X163353275Y-102825057D02*
X163400894Y-102777438D01*
X163400894Y-102777438D02*
X163353275Y-102729819D01*
X163353275Y-102729819D02*
X163353275Y-102825057D01*
X163972322Y-103729819D02*
X163877084Y-103682200D01*
X163877084Y-103682200D02*
X163829465Y-103634580D01*
X163829465Y-103634580D02*
X163781846Y-103539342D01*
X163781846Y-103539342D02*
X163781846Y-103253628D01*
X163781846Y-103253628D02*
X163829465Y-103158390D01*
X163829465Y-103158390D02*
X163877084Y-103110771D01*
X163877084Y-103110771D02*
X163972322Y-103063152D01*
X163972322Y-103063152D02*
X164115179Y-103063152D01*
X164115179Y-103063152D02*
X164210417Y-103110771D01*
X164210417Y-103110771D02*
X164258036Y-103158390D01*
X164258036Y-103158390D02*
X164305655Y-103253628D01*
X164305655Y-103253628D02*
X164305655Y-103539342D01*
X164305655Y-103539342D02*
X164258036Y-103634580D01*
X164258036Y-103634580D02*
X164210417Y-103682200D01*
X164210417Y-103682200D02*
X164115179Y-103729819D01*
X164115179Y-103729819D02*
X163972322Y-103729819D01*
X158019941Y-104729819D02*
X158686607Y-105729819D01*
X158686607Y-104729819D02*
X158019941Y-105729819D01*
X159067560Y-105729819D02*
X159067560Y-104729819D01*
X159496131Y-105444104D02*
X159972321Y-105444104D01*
X159400893Y-105729819D02*
X159734226Y-104729819D01*
X159734226Y-104729819D02*
X160067559Y-105729819D01*
X160591369Y-104729819D02*
X160781845Y-104729819D01*
X160781845Y-104729819D02*
X160877083Y-104777438D01*
X160877083Y-104777438D02*
X160972321Y-104872676D01*
X160972321Y-104872676D02*
X161019940Y-105063152D01*
X161019940Y-105063152D02*
X161019940Y-105396485D01*
X161019940Y-105396485D02*
X160972321Y-105586961D01*
X160972321Y-105586961D02*
X160877083Y-105682200D01*
X160877083Y-105682200D02*
X160781845Y-105729819D01*
X160781845Y-105729819D02*
X160591369Y-105729819D01*
X160591369Y-105729819D02*
X160496131Y-105682200D01*
X160496131Y-105682200D02*
X160400893Y-105586961D01*
X160400893Y-105586961D02*
X160353274Y-105396485D01*
X160353274Y-105396485D02*
X160353274Y-105063152D01*
X160353274Y-105063152D02*
X160400893Y-104872676D01*
X160400893Y-104872676D02*
X160496131Y-104777438D01*
X160496131Y-104777438D02*
X160591369Y-104729819D01*
X117729167Y-118739450D02*
X117872024Y-118787069D01*
X117872024Y-118787069D02*
X118110119Y-118787069D01*
X118110119Y-118787069D02*
X118205357Y-118739450D01*
X118205357Y-118739450D02*
X118252976Y-118691830D01*
X118252976Y-118691830D02*
X118300595Y-118596592D01*
X118300595Y-118596592D02*
X118300595Y-118501354D01*
X118300595Y-118501354D02*
X118252976Y-118406116D01*
X118252976Y-118406116D02*
X118205357Y-118358497D01*
X118205357Y-118358497D02*
X118110119Y-118310878D01*
X118110119Y-118310878D02*
X117919643Y-118263259D01*
X117919643Y-118263259D02*
X117824405Y-118215640D01*
X117824405Y-118215640D02*
X117776786Y-118168021D01*
X117776786Y-118168021D02*
X117729167Y-118072783D01*
X117729167Y-118072783D02*
X117729167Y-117977545D01*
X117729167Y-117977545D02*
X117776786Y-117882307D01*
X117776786Y-117882307D02*
X117824405Y-117834688D01*
X117824405Y-117834688D02*
X117919643Y-117787069D01*
X117919643Y-117787069D02*
X118157738Y-117787069D01*
X118157738Y-117787069D02*
X118300595Y-117834688D01*
X118633929Y-117787069D02*
X118872024Y-118787069D01*
X118872024Y-118787069D02*
X119062500Y-118072783D01*
X119062500Y-118072783D02*
X119252976Y-118787069D01*
X119252976Y-118787069D02*
X119491072Y-117787069D01*
X119824405Y-117882307D02*
X119872024Y-117834688D01*
X119872024Y-117834688D02*
X119967262Y-117787069D01*
X119967262Y-117787069D02*
X120205357Y-117787069D01*
X120205357Y-117787069D02*
X120300595Y-117834688D01*
X120300595Y-117834688D02*
X120348214Y-117882307D01*
X120348214Y-117882307D02*
X120395833Y-117977545D01*
X120395833Y-117977545D02*
X120395833Y-118072783D01*
X120395833Y-118072783D02*
X120348214Y-118215640D01*
X120348214Y-118215640D02*
X119776786Y-118787069D01*
X119776786Y-118787069D02*
X120395833Y-118787069D01*
X136779167Y-118739450D02*
X136922024Y-118787069D01*
X136922024Y-118787069D02*
X137160119Y-118787069D01*
X137160119Y-118787069D02*
X137255357Y-118739450D01*
X137255357Y-118739450D02*
X137302976Y-118691830D01*
X137302976Y-118691830D02*
X137350595Y-118596592D01*
X137350595Y-118596592D02*
X137350595Y-118501354D01*
X137350595Y-118501354D02*
X137302976Y-118406116D01*
X137302976Y-118406116D02*
X137255357Y-118358497D01*
X137255357Y-118358497D02*
X137160119Y-118310878D01*
X137160119Y-118310878D02*
X136969643Y-118263259D01*
X136969643Y-118263259D02*
X136874405Y-118215640D01*
X136874405Y-118215640D02*
X136826786Y-118168021D01*
X136826786Y-118168021D02*
X136779167Y-118072783D01*
X136779167Y-118072783D02*
X136779167Y-117977545D01*
X136779167Y-117977545D02*
X136826786Y-117882307D01*
X136826786Y-117882307D02*
X136874405Y-117834688D01*
X136874405Y-117834688D02*
X136969643Y-117787069D01*
X136969643Y-117787069D02*
X137207738Y-117787069D01*
X137207738Y-117787069D02*
X137350595Y-117834688D01*
X137683929Y-117787069D02*
X137922024Y-118787069D01*
X137922024Y-118787069D02*
X138112500Y-118072783D01*
X138112500Y-118072783D02*
X138302976Y-118787069D01*
X138302976Y-118787069D02*
X138541072Y-117787069D01*
X138826786Y-117787069D02*
X139445833Y-117787069D01*
X139445833Y-117787069D02*
X139112500Y-118168021D01*
X139112500Y-118168021D02*
X139255357Y-118168021D01*
X139255357Y-118168021D02*
X139350595Y-118215640D01*
X139350595Y-118215640D02*
X139398214Y-118263259D01*
X139398214Y-118263259D02*
X139445833Y-118358497D01*
X139445833Y-118358497D02*
X139445833Y-118596592D01*
X139445833Y-118596592D02*
X139398214Y-118691830D01*
X139398214Y-118691830D02*
X139350595Y-118739450D01*
X139350595Y-118739450D02*
X139255357Y-118787069D01*
X139255357Y-118787069D02*
X138969643Y-118787069D01*
X138969643Y-118787069D02*
X138874405Y-118739450D01*
X138874405Y-118739450D02*
X138826786Y-118691830D01*
X136779167Y-99689450D02*
X136922024Y-99737069D01*
X136922024Y-99737069D02*
X137160119Y-99737069D01*
X137160119Y-99737069D02*
X137255357Y-99689450D01*
X137255357Y-99689450D02*
X137302976Y-99641830D01*
X137302976Y-99641830D02*
X137350595Y-99546592D01*
X137350595Y-99546592D02*
X137350595Y-99451354D01*
X137350595Y-99451354D02*
X137302976Y-99356116D01*
X137302976Y-99356116D02*
X137255357Y-99308497D01*
X137255357Y-99308497D02*
X137160119Y-99260878D01*
X137160119Y-99260878D02*
X136969643Y-99213259D01*
X136969643Y-99213259D02*
X136874405Y-99165640D01*
X136874405Y-99165640D02*
X136826786Y-99118021D01*
X136826786Y-99118021D02*
X136779167Y-99022783D01*
X136779167Y-99022783D02*
X136779167Y-98927545D01*
X136779167Y-98927545D02*
X136826786Y-98832307D01*
X136826786Y-98832307D02*
X136874405Y-98784688D01*
X136874405Y-98784688D02*
X136969643Y-98737069D01*
X136969643Y-98737069D02*
X137207738Y-98737069D01*
X137207738Y-98737069D02*
X137350595Y-98784688D01*
X137683929Y-98737069D02*
X137922024Y-99737069D01*
X137922024Y-99737069D02*
X138112500Y-99022783D01*
X138112500Y-99022783D02*
X138302976Y-99737069D01*
X138302976Y-99737069D02*
X138541072Y-98737069D01*
X139445833Y-99737069D02*
X138874405Y-99737069D01*
X139160119Y-99737069D02*
X139160119Y-98737069D01*
X139160119Y-98737069D02*
X139064881Y-98879926D01*
X139064881Y-98879926D02*
X138969643Y-98975164D01*
X138969643Y-98975164D02*
X138874405Y-99022783D01*
X118324405Y-107242319D02*
X118324405Y-106242319D01*
X118324405Y-106242319D02*
X118562500Y-106242319D01*
X118562500Y-106242319D02*
X118705357Y-106289938D01*
X118705357Y-106289938D02*
X118800595Y-106385176D01*
X118800595Y-106385176D02*
X118848214Y-106480414D01*
X118848214Y-106480414D02*
X118895833Y-106670890D01*
X118895833Y-106670890D02*
X118895833Y-106813747D01*
X118895833Y-106813747D02*
X118848214Y-107004223D01*
X118848214Y-107004223D02*
X118800595Y-107099461D01*
X118800595Y-107099461D02*
X118705357Y-107194700D01*
X118705357Y-107194700D02*
X118562500Y-107242319D01*
X118562500Y-107242319D02*
X118324405Y-107242319D01*
X119276786Y-106337557D02*
X119324405Y-106289938D01*
X119324405Y-106289938D02*
X119419643Y-106242319D01*
X119419643Y-106242319D02*
X119657738Y-106242319D01*
X119657738Y-106242319D02*
X119752976Y-106289938D01*
X119752976Y-106289938D02*
X119800595Y-106337557D01*
X119800595Y-106337557D02*
X119848214Y-106432795D01*
X119848214Y-106432795D02*
X119848214Y-106528033D01*
X119848214Y-106528033D02*
X119800595Y-106670890D01*
X119800595Y-106670890D02*
X119229167Y-107242319D01*
X119229167Y-107242319D02*
X119848214Y-107242319D01*
X116091071Y-109024795D02*
X115633928Y-109024795D01*
X115862500Y-109024795D02*
X115862500Y-108224795D01*
X115862500Y-108224795D02*
X115786309Y-108339080D01*
X115786309Y-108339080D02*
X115710119Y-108415271D01*
X115710119Y-108415271D02*
X115633928Y-108453366D01*
X118324405Y-102122319D02*
X118324405Y-101122319D01*
X118324405Y-101122319D02*
X118562500Y-101122319D01*
X118562500Y-101122319D02*
X118705357Y-101169938D01*
X118705357Y-101169938D02*
X118800595Y-101265176D01*
X118800595Y-101265176D02*
X118848214Y-101360414D01*
X118848214Y-101360414D02*
X118895833Y-101550890D01*
X118895833Y-101550890D02*
X118895833Y-101693747D01*
X118895833Y-101693747D02*
X118848214Y-101884223D01*
X118848214Y-101884223D02*
X118800595Y-101979461D01*
X118800595Y-101979461D02*
X118705357Y-102074700D01*
X118705357Y-102074700D02*
X118562500Y-102122319D01*
X118562500Y-102122319D02*
X118324405Y-102122319D01*
X119848214Y-102122319D02*
X119276786Y-102122319D01*
X119562500Y-102122319D02*
X119562500Y-101122319D01*
X119562500Y-101122319D02*
X119467262Y-101265176D01*
X119467262Y-101265176D02*
X119372024Y-101360414D01*
X119372024Y-101360414D02*
X119276786Y-101408033D01*
X116091071Y-103904795D02*
X115633928Y-103904795D01*
X115862500Y-103904795D02*
X115862500Y-103104795D01*
X115862500Y-103104795D02*
X115786309Y-103219080D01*
X115786309Y-103219080D02*
X115710119Y-103295271D01*
X115710119Y-103295271D02*
X115633928Y-103333366D01*
X155829167Y-118739450D02*
X155972024Y-118787069D01*
X155972024Y-118787069D02*
X156210119Y-118787069D01*
X156210119Y-118787069D02*
X156305357Y-118739450D01*
X156305357Y-118739450D02*
X156352976Y-118691830D01*
X156352976Y-118691830D02*
X156400595Y-118596592D01*
X156400595Y-118596592D02*
X156400595Y-118501354D01*
X156400595Y-118501354D02*
X156352976Y-118406116D01*
X156352976Y-118406116D02*
X156305357Y-118358497D01*
X156305357Y-118358497D02*
X156210119Y-118310878D01*
X156210119Y-118310878D02*
X156019643Y-118263259D01*
X156019643Y-118263259D02*
X155924405Y-118215640D01*
X155924405Y-118215640D02*
X155876786Y-118168021D01*
X155876786Y-118168021D02*
X155829167Y-118072783D01*
X155829167Y-118072783D02*
X155829167Y-117977545D01*
X155829167Y-117977545D02*
X155876786Y-117882307D01*
X155876786Y-117882307D02*
X155924405Y-117834688D01*
X155924405Y-117834688D02*
X156019643Y-117787069D01*
X156019643Y-117787069D02*
X156257738Y-117787069D01*
X156257738Y-117787069D02*
X156400595Y-117834688D01*
X156733929Y-117787069D02*
X156972024Y-118787069D01*
X156972024Y-118787069D02*
X157162500Y-118072783D01*
X157162500Y-118072783D02*
X157352976Y-118787069D01*
X157352976Y-118787069D02*
X157591072Y-117787069D01*
X158400595Y-118120402D02*
X158400595Y-118787069D01*
X158162500Y-117739450D02*
X157924405Y-118453735D01*
X157924405Y-118453735D02*
X158543452Y-118453735D01*
%TO.C,U1*%
D14*
X150643750Y-96275000D02*
X150643750Y-113275000D01*
X152643750Y-115275000D02*
X166443750Y-115275000D01*
X155043750Y-92850970D02*
X164043750Y-92850970D01*
X155043750Y-100204270D02*
X155043750Y-92850970D01*
X164043750Y-92850970D02*
X164043750Y-100204270D01*
X164043750Y-100204270D02*
X155043750Y-100204270D01*
X166443750Y-94275910D02*
X152643750Y-94275910D01*
X168443750Y-113275000D02*
X168443750Y-96275000D01*
D15*
X150643750Y-96275000D02*
G75*
G02*
X152643750Y-94275000I2044612J-44612D01*
G01*
X152643750Y-115275000D02*
G75*
G02*
X150643750Y-113275000I44857J2044857D01*
G01*
X166443750Y-94275000D02*
G75*
G02*
X168443750Y-96275000I-44610J-2044610D01*
G01*
X168443750Y-113275000D02*
G75*
G02*
X166443750Y-115275000I-2000000J0D01*
G01*
D16*
X148670750Y-95975000D02*
G75*
G02*
X148416750Y-95975000I-127000J0D01*
G01*
X148416750Y-95975000D02*
G75*
G02*
X148670750Y-95975000I127000J0D01*
G01*
D17*
X150656035Y-96213295D02*
X150659083Y-96164527D01*
X150663147Y-96115506D01*
X150656035Y-96213295D01*
X168433242Y-113296574D02*
X168431463Y-113345850D01*
X168428415Y-113394618D01*
X168424351Y-113443639D01*
X168419018Y-113492407D01*
X168412414Y-113541175D01*
X168404794Y-113589690D01*
X168395903Y-113637950D01*
X168385998Y-113685955D01*
X168433242Y-113296574D01*
%TO.C,SW2*%
D15*
X112077500Y-119221250D02*
X126047500Y-119221250D01*
X112077500Y-133191250D02*
X112077500Y-119221250D01*
X126047500Y-119221250D02*
X126047500Y-133191250D01*
X126047500Y-133191250D02*
X112077500Y-133191250D01*
%TO.C,SW3*%
X131127500Y-119221250D02*
X145097500Y-119221250D01*
X131127500Y-133191250D02*
X131127500Y-119221250D01*
X145097500Y-119221250D02*
X145097500Y-133191250D01*
X145097500Y-133191250D02*
X131127500Y-133191250D01*
%TO.C,SW1*%
X131127500Y-100171250D02*
X145097500Y-100171250D01*
X131127500Y-114141250D02*
X131127500Y-100171250D01*
X145097500Y-100171250D02*
X145097500Y-114141250D01*
X145097500Y-114141250D02*
X131127500Y-114141250D01*
%TO.C,D2*%
X116262500Y-107537500D02*
X116262500Y-111537500D01*
X116262500Y-107537500D02*
X121862500Y-107537500D01*
X116262500Y-111537500D02*
X121262500Y-111537500D01*
X121862500Y-110937500D02*
X121262500Y-111537500D01*
X121862500Y-110937500D02*
X121862500Y-107537500D01*
%TO.C,D1*%
X116262500Y-102417500D02*
X116262500Y-106417500D01*
X116262500Y-102417500D02*
X121862500Y-102417500D01*
X116262500Y-106417500D02*
X121262500Y-106417500D01*
X121862500Y-105817500D02*
X121262500Y-106417500D01*
X121862500Y-105817500D02*
X121862500Y-102417500D01*
%TO.C,SW4*%
X150177500Y-119221250D02*
X164147500Y-119221250D01*
X150177500Y-133191250D02*
X150177500Y-119221250D01*
X164147500Y-119221250D02*
X164147500Y-133191250D01*
X164147500Y-133191250D02*
X150177500Y-133191250D01*
%TD*%
M02*
