M48
; DRILL file KiCad 10.0.3 date 2026-09-19T11:13:54
; FORMAT={-:-/ absolute / metric / decimal}
; #@! TF.CreationDate,2026-09-19T11:13:54-07:00
; #@! TF.GenerationSoftware,Kicad,Pcbnew,10.0.3
; #@! TF.FileFunction,Plated,1,2,PTH
FMAT,2
METRIC
; #@! TA.AperFunction,Plated,PTH,ViaDrill
T1C0.300
; #@! TA.AperFunction,Plated,PTH,ComponentDrill
T2C1.000
; #@! TA.AperFunction,Plated,PTH,ComponentDrill
T3C1.500
%
G90
G05
T1
X118.75Y-100.0
X124.0Y-106.75
X128.0Y-98.5
X129.0Y-94.5
X158.0Y-112.75
X158.0Y-117.5
X160.75Y-107.5
X161.5Y-112.25
T2
X151.919Y-97.155
X151.919Y-99.695
X151.919Y-102.235
X151.919Y-104.775
X151.919Y-107.315
X151.919Y-109.855
X151.919Y-112.395
X167.169Y-97.155
X167.169Y-99.695
X167.169Y-102.235
X167.169Y-104.775
X167.169Y-107.315
X167.169Y-109.855
X167.169Y-112.395
T3
X115.252Y-123.666
X121.602Y-121.126
X134.302Y-104.616
X134.302Y-123.666
X140.653Y-102.076
X140.653Y-121.126
X153.352Y-123.666
X159.702Y-121.126
M30
