%TF.GenerationSoftware,KiCad,Pcbnew,10.0.3*%
%TF.CreationDate,2026-09-19T11:13:59-07:00*%
%TF.ProjectId,hackpad2,6861636b-7061-4643-922e-6b696361645f,rev?*%
%TF.SameCoordinates,Original*%
%TF.FileFunction,Copper,L1,Top*%
%TF.FilePolarity,Positive*%
%FSLAX46Y46*%
G04 Gerber Fmt 4.6, Leading zero omitted, Abs format (unit mm)*
G04 Created by KiCad (PCBNEW 10.0.3) date 2026-09-19 11:13:59*
%MOMM*%
%LPD*%
G01*
G04 APERTURE LIST*
%TA.AperFunction,ComponentPad*%
%ADD10R,3.500000X1.700000*%
%TD*%
%TA.AperFunction,ComponentPad*%
%ADD11O,3.600000X1.700000*%
%TD*%
%TA.AperFunction,ComponentPad*%
%ADD12O,3.700000X1.700000*%
%TD*%
%TA.AperFunction,ComponentPad*%
%ADD13C,2.200000*%
%TD*%
%TA.AperFunction,SMDPad,CuDef*%
%ADD14R,1.600000X0.850000*%
%TD*%
%TA.AperFunction,ViaPad*%
%ADD15C,0.600000*%
%TD*%
%TA.AperFunction,Conductor*%
%ADD16C,0.200000*%
%TD*%
G04 APERTURE END LIST*
D10*
%TO.P,U1,1,PA02_A0_D0_1*%
%TO.N,unconnected-(U1-PA02_A0_D0-Pad1)*%
X150918750Y-97155000D03*
D11*
%TO.P,U1,2,PA4_A1_D1_2*%
%TO.N,unconnected-(U1-PA4_A1_D1-Pad2)*%
X150918750Y-99695000D03*
%TO.P,U1,3,PA10_A2_D2_3*%
%TO.N,unconnected-(U1-PA10_A2_D2-Pad3)*%
X150918750Y-102235000D03*
%TO.P,U1,4,PA11_A3_D3_4*%
%TO.N,unconnected-(U1-PA11_A3_D3-Pad4)*%
X150918750Y-104775000D03*
%TO.P,U1,5,PA8_A4_D4_SDA_5*%
%TO.N,Net-(D1-DIN)*%
X150918750Y-107315000D03*
%TO.P,U1,6,PA9_A5_D5_SCL_6*%
%TO.N,unconnected-(U1-PA9_A5_D5_SCL-Pad6)*%
X150918750Y-109855000D03*
%TO.P,U1,7,PB08_A6_D6_TX_7*%
%TO.N,unconnected-(U1-PB08_A6_D6_TX-Pad7)*%
X150918750Y-112395000D03*
%TO.P,U1,8,PB09_A7_D7_RX_8*%
%TO.N,Net-(U1-PB09_A7_D7_RX)*%
X168168750Y-112395000D03*
%TO.P,U1,9,PA7_A8_D8_SCK_9*%
%TO.N,Net-(U1-PA7_A8_D8_SCK)*%
X168168750Y-109855000D03*
%TO.P,U1,10,PA5_A9_D9_MISO_10*%
%TO.N,Net-(U1-PA5_A9_D9_MISO)*%
X168168750Y-107315000D03*
D12*
%TO.P,U1,11,PA6_A10_D10_MOSI_11*%
%TO.N,Net-(U1-PA6_A10_D10_MOSI)*%
X168168750Y-104775000D03*
%TO.P,U1,12,3V3_12*%
%TO.N,unconnected-(U1-3V3-Pad12)*%
X168168750Y-102235000D03*
%TO.P,U1,13,GND_13*%
%TO.N,GND*%
X168168750Y-99695000D03*
%TO.P,U1,14,5V_14*%
%TO.N,Net-(D1-VDD)*%
X168168750Y-97155000D03*
%TD*%
D13*
%TO.P,SW2,1,1_1*%
%TO.N,GND*%
X121602500Y-121126250D03*
%TO.P,SW2,2,2_2*%
%TO.N,Net-(U1-PA7_A8_D8_SCK)*%
X115252500Y-123666250D03*
%TD*%
%TO.P,SW3,1,1_1*%
%TO.N,GND*%
X140652500Y-121126250D03*
%TO.P,SW3,2,2_2*%
%TO.N,Net-(U1-PA5_A9_D9_MISO)*%
X134302500Y-123666250D03*
%TD*%
%TO.P,SW1,1,1_1*%
%TO.N,GND*%
X140652500Y-102076250D03*
%TO.P,SW1,2,2_2*%
%TO.N,Net-(U1-PB09_A7_D7_RX)*%
X134302500Y-104616250D03*
%TD*%
D14*
%TO.P,D2,1,DOUT_1*%
%TO.N,unconnected-(D2-DOUT-Pad1)*%
X117312500Y-108662500D03*
%TO.P,D2,2,VSS_2*%
%TO.N,GND*%
X117312500Y-110412500D03*
%TO.P,D2,3,DIN_3*%
%TO.N,Net-(D1-DOUT)*%
X120812500Y-110412500D03*
%TO.P,D2,4,VDD_4*%
%TO.N,Net-(D1-VDD)*%
X120812500Y-108662500D03*
%TD*%
%TO.P,D1,1,DOUT_1*%
%TO.N,Net-(D1-DOUT)*%
X117312500Y-103542500D03*
%TO.P,D1,2,VSS_2*%
%TO.N,GND*%
X117312500Y-105292500D03*
%TO.P,D1,3,DIN_3*%
%TO.N,Net-(D1-DIN)*%
X120812500Y-105292500D03*
%TO.P,D1,4,VDD_4*%
%TO.N,Net-(D1-VDD)*%
X120812500Y-103542500D03*
%TD*%
D13*
%TO.P,SW4,1,1_1*%
%TO.N,GND*%
X159702500Y-121126250D03*
%TO.P,SW4,2,2_2*%
%TO.N,Net-(U1-PA6_A10_D10_MOSI)*%
X153352500Y-123666250D03*
%TD*%
D15*
%TO.N,Net-(D1-VDD)*%
X128000000Y-98500000D03*
X129000000Y-94500000D03*
%TO.N,Net-(D1-DOUT)*%
X124000000Y-106750000D03*
X118750000Y-100000000D03*
%TO.N,Net-(U1-PB09_A7_D7_RX)*%
X161500000Y-112250000D03*
%TO.N,Net-(U1-PA5_A9_D9_MISO)*%
X158000000Y-112750000D03*
X160750000Y-107500000D03*
X158000000Y-117500000D03*
%TD*%
%TO.N,Net-(D1-VDD)*%
D16*
X118792500Y-103542500D02*
X120812500Y-103542500D01*
X120812500Y-108662500D02*
X120662500Y-108662500D01*
X120662500Y-108662500D02*
X118750000Y-106750000D01*
X118750000Y-103585000D02*
X118792500Y-103542500D01*
X118750000Y-106750000D02*
X118750000Y-103585000D01*
X164513750Y-94500000D02*
X129000000Y-94500000D01*
X122957500Y-103542500D02*
X120812500Y-103542500D01*
X167168750Y-97155000D02*
X164513750Y-94500000D01*
X128000000Y-98500000D02*
X122957500Y-103542500D01*
%TO.N,GND*%
X162250000Y-118578750D02*
X162250000Y-116250000D01*
X162250000Y-99750000D02*
X167113750Y-99750000D01*
X140652500Y-121126250D02*
X145528750Y-116250000D01*
X139000000Y-96250000D02*
X114250000Y-96250000D01*
X114000000Y-105250000D02*
X114000000Y-110000000D01*
X124000000Y-113500000D02*
X117500000Y-113500000D01*
X117312500Y-105292500D02*
X114042500Y-105292500D01*
X121602500Y-121126250D02*
X126478750Y-116250000D01*
X126750000Y-116250000D02*
X124000000Y-113500000D01*
X114000000Y-110000000D02*
X117312500Y-113312500D01*
X140652500Y-97902500D02*
X139000000Y-96250000D01*
X126478750Y-116250000D02*
X126750000Y-116250000D01*
X140652500Y-102076250D02*
X140652500Y-97902500D01*
X114000000Y-96500000D02*
X114000000Y-105250000D01*
X117500000Y-113500000D02*
X117312500Y-113312500D01*
X159702500Y-121126250D02*
X162250000Y-118578750D01*
X162250000Y-116250000D02*
X162250000Y-99750000D01*
X114042500Y-105292500D02*
X114000000Y-105250000D01*
X126750000Y-116250000D02*
X145528750Y-116250000D01*
X145528750Y-116250000D02*
X162250000Y-116250000D01*
X117312500Y-113312500D02*
X117312500Y-110412500D01*
X114250000Y-96250000D02*
X114000000Y-96500000D01*
X167113750Y-99750000D02*
X167168750Y-99695000D01*
%TO.N,Net-(D1-DOUT)*%
X117312500Y-101437500D02*
X117312500Y-103542500D01*
X120900000Y-110500000D02*
X123500000Y-110500000D01*
X120812500Y-110412500D02*
X120900000Y-110500000D01*
X118750000Y-100000000D02*
X117312500Y-101437500D01*
X124000000Y-110000000D02*
X124000000Y-106750000D01*
X123500000Y-110500000D02*
X124000000Y-110000000D01*
%TO.N,Net-(D1-DIN)*%
X149315000Y-107315000D02*
X151918750Y-107315000D01*
X138250000Y-100750000D02*
X138250000Y-103500000D01*
X140000000Y-105250000D02*
X147250000Y-105250000D01*
X138250000Y-103500000D02*
X140000000Y-105250000D01*
X132250000Y-100750000D02*
X138250000Y-100750000D01*
X127707500Y-105292500D02*
X132250000Y-100750000D01*
X120812500Y-105292500D02*
X127707500Y-105292500D01*
X147250000Y-105250000D02*
X149315000Y-107315000D01*
%TO.N,Net-(U1-PB09_A7_D7_RX)*%
X142132848Y-114500000D02*
X161000000Y-114500000D01*
X134302500Y-104616250D02*
X134302500Y-106669652D01*
X161000000Y-112250000D02*
X161500000Y-112250000D01*
X134302500Y-106669652D02*
X142132848Y-114500000D01*
X161000000Y-114500000D02*
X161000000Y-112250000D01*
%TO.N,Net-(U1-PA7_A8_D8_SCK)*%
X128795444Y-123666250D02*
X133685444Y-128556250D01*
X166443750Y-128556250D02*
X170000000Y-125000000D01*
X133685444Y-128556250D02*
X166443750Y-128556250D01*
X171000000Y-115250000D02*
X171000000Y-111250000D01*
X171000000Y-111250000D02*
X169605000Y-109855000D01*
X169605000Y-109855000D02*
X167168750Y-109855000D01*
X170000000Y-125000000D02*
X170000000Y-115250000D01*
X115252500Y-123666250D02*
X128795444Y-123666250D01*
X170000000Y-115250000D02*
X171000000Y-115250000D01*
X167273750Y-109750000D02*
X167168750Y-109855000D01*
%TO.N,Net-(U1-PA5_A9_D9_MISO)*%
X158000000Y-112750000D02*
X158000000Y-107500000D01*
X157750000Y-118000000D02*
X158000000Y-117750000D01*
X158000000Y-117750000D02*
X158000000Y-117500000D01*
X151372601Y-123666250D02*
X157038851Y-118000000D01*
X157038851Y-118000000D02*
X157750000Y-118000000D01*
X134302500Y-123666250D02*
X151372601Y-123666250D01*
X158000000Y-107500000D02*
X160750000Y-107500000D01*
%TO.N,Net-(U1-PA6_A10_D10_MOSI)*%
X160333750Y-123666250D02*
X165250000Y-118750000D01*
X165250000Y-104750000D02*
X167143750Y-104750000D01*
X153352500Y-123666250D02*
X160333750Y-123666250D01*
X165250000Y-118750000D02*
X165250000Y-104750000D01*
X167143750Y-104750000D02*
X167168750Y-104775000D01*
%TD*%
M02*
